<mxfile host="app.diagrams.net" modified="2021-02-21T07:13:24.453Z" agent="5.0 (Windows NT 6.1; Win64; x64) AppleWebKit/537.36 (KHTML, like Gecko) Chrome/88.0.4324.182 Safari/537.36" etag="tgFdcQifg3siYo-bz_d8" version="14.1.1" type="github">
  <diagram id="CnsKEd2_zOqNTJdfBY84" name="第 1 页">
    <mxGraphModel dx="1102" dy="582" grid="1" gridSize="10" guides="1" tooltips="1" connect="1" arrows="1" fold="1" page="1" pageScale="1" pageWidth="827" pageHeight="1169" math="0" shadow="0">
      <root>
        <mxCell id="0" />
        <mxCell id="1" parent="0" />
        <mxCell id="cjvi5PMMk7Y5chOx5MDs-1" value="帧长度&lt;br&gt;24 bits" style="rounded=0;whiteSpace=wrap;html=1;fontSize=16;fillColor=#dae8fc;strokeColor=#6c8ebf;" vertex="1" parent="1">
          <mxGeometry x="160" y="70" width="360" height="50" as="geometry" />
        </mxCell>
        <mxCell id="cjvi5PMMk7Y5chOx5MDs-2" value="帧类型&lt;br&gt;8 bits" style="rounded=0;whiteSpace=wrap;html=1;fontSize=16;fillColor=#dae8fc;strokeColor=#6c8ebf;" vertex="1" parent="1">
          <mxGeometry x="160" y="120" width="180" height="50" as="geometry" />
        </mxCell>
        <mxCell id="cjvi5PMMk7Y5chOx5MDs-3" value="标志位&lt;br&gt;8 bits" style="rounded=0;whiteSpace=wrap;html=1;fontSize=16;fillColor=#dae8fc;strokeColor=#6c8ebf;" vertex="1" parent="1">
          <mxGeometry x="340" y="120" width="180" height="50" as="geometry" />
        </mxCell>
        <mxCell id="cjvi5PMMk7Y5chOx5MDs-4" value="R&lt;br&gt;1 bits" style="rounded=0;whiteSpace=wrap;html=1;fontSize=16;fillColor=#dae8fc;strokeColor=#6c8ebf;" vertex="1" parent="1">
          <mxGeometry x="160" y="170" width="55.38461538461539" height="50" as="geometry" />
        </mxCell>
        <mxCell id="cjvi5PMMk7Y5chOx5MDs-5" value="流标识符&lt;br&gt;31 bits" style="rounded=0;whiteSpace=wrap;html=1;fontSize=16;fillColor=#dae8fc;strokeColor=#6c8ebf;" vertex="1" parent="1">
          <mxGeometry x="215.3846153846154" y="170" width="304.6153846153846" height="50" as="geometry" />
        </mxCell>
        <mxCell id="cjvi5PMMk7Y5chOx5MDs-6" value="实际传输的数据" style="rounded=0;whiteSpace=wrap;html=1;fontSize=16;fillColor=#d5e8d4;strokeColor=#82b366;" vertex="1" parent="1">
          <mxGeometry x="160" y="220" width="360" height="160" as="geometry" />
        </mxCell>
        <mxCell id="cjvi5PMMk7Y5chOx5MDs-8" value="Frame&lt;br&gt;Header" style="text;html=1;align=center;verticalAlign=middle;resizable=0;points=[];autosize=1;fontSize=16;fillColor=#dae8fc;strokeColor=#6c8ebf;" vertex="1" parent="1">
          <mxGeometry x="50" y="130" width="70" height="40" as="geometry" />
        </mxCell>
        <mxCell id="cjvi5PMMk7Y5chOx5MDs-9" value="Frame&lt;br&gt;Playload" style="text;html=1;align=center;verticalAlign=middle;resizable=0;points=[];autosize=1;fontSize=16;fillColor=#d5e8d4;strokeColor=#82b366;" vertex="1" parent="1">
          <mxGeometry x="40" y="280" width="80" height="40" as="geometry" />
        </mxCell>
        <mxCell id="cjvi5PMMk7Y5chOx5MDs-10" value="" style="shape=curlyBracket;whiteSpace=wrap;html=1;rounded=1;fontSize=16;" vertex="1" parent="1">
          <mxGeometry x="130" y="70" width="20" height="150" as="geometry" />
        </mxCell>
        <mxCell id="cjvi5PMMk7Y5chOx5MDs-11" value="" style="shape=curlyBracket;whiteSpace=wrap;html=1;rounded=1;fontSize=16;" vertex="1" parent="1">
          <mxGeometry x="130" y="220" width="20" height="160" as="geometry" />
        </mxCell>
      </root>
    </mxGraphModel>
  </diagram>
</mxfile>
